<?xml version="1.0" encoding="UTF-8" standalone="no"?>
<svg
   width="500"
   height="700"
   viewBox="0 0 500 700"
   preserveAspectRatio="xMidYMid meet"
   version="1.1"
   id="svg1"
   sodipodi:docname="card_earth.svg"
   inkscape:version="1.4.2 (ebf0e94, 2025-05-08)"
   xmlns:inkscape="http://www.inkscape.org/namespaces/inkscape"
   xmlns:sodipodi="http://sodipodi.sourceforge.net/DTD/sodipodi-0.dtd"
   xmlns="http://www.w3.org/2000/svg"
   xmlns:svg="http://www.w3.org/2000/svg">
  <defs
     id="defs1">
    <linearGradient
       id="swatch84"
       inkscape:swatch="solid">
      <stop
         style="stop-color:#693017;stop-opacity:1;"
         offset="0"
         id="stop84" />
    </linearGradient>
  </defs>
  <sodipodi:namedview
     id="namedview1"
     pagecolor="#ffffff"
     bordercolor="#000000"
     borderopacity="0.25"
     inkscape:showpageshadow="2"
     inkscape:pageopacity="0.0"
     inkscape:pagecheckerboard="0"
     inkscape:deskcolor="#d1d1d1"
     inkscape:zoom="1.0730016"
     inkscape:cx="193.38275"
     inkscape:cy="362.06842"
     inkscape:window-width="1920"
     inkscape:window-height="1024"
     inkscape:window-x="0"
     inkscape:window-y="0"
     inkscape:window-maximized="1"
     inkscape:current-layer="svg1" />
  <path
     style="opacity:1;fill:#6d4b35;fill-opacity:1;stroke:none;stroke-width:5;stroke-dasharray:none;stroke-opacity:1"
     d="m 2.5830258,13.776138 c 7.1750718,0 14.3501432,0 21.5252152,0 1.602424,0 3.706763,-0.48643 5.166052,0 3.058117,1.019372 6.533298,-0.118257 9.471094,0.861008 1.217651,0.405884 2.177983,1.511009 3.444035,1.722018 1.415489,0.235914 2.912875,-0.348043 4.305043,0 3.784571,0.946142 7.259309,0.861008 11.193112,0.861008 3.785138,0 11.427582,-1.069855 14.637146,0 0.385055,0.128352 0.463007,0.781409 0.861009,0.861009 3.627597,0.725519 8.356085,0 12.05412,0 10.332104,0 20.664208,0 30.996308,0 12.91513,0 25.83026,0 38.74539,0 5.57466,0 13.59004,1.07043 18.94219,0 2.91421,-0.582842 5.65171,-1.130343 8.61009,-1.722017 1.40044,-0.28009 2.89604,0.35225 4.30504,0 0.78753,-0.196883 0.99595,-1.358985 1.72202,-1.722018 1.54798,-0.77399 9.11027,0 11.19311,0 9.18409,0 18.36818,0 27.55227,0 11.19311,0 22.38623,0 33.57934,0 4.39002,0 10.37679,1.065088 14.63715,0 2.19506,-0.548766 3.95671,-1.031903 6.02706,-1.722017 1.27243,-0.424144 3.00898,0.324015 4.30504,0 2.10243,-0.525607 3.18563,-1.592813 5.16605,-2.583026 2.74096,-1.3704774 17.25583,1.067346 21.52522,0 0.39376,-0.09844 0.49797,-0.6794917 0.861,-0.8610083 0.52104,-0.2605173 19.12352,-0.3851733 20.66421,0 0.39377,0.098441 0.46724,0.7625673 0.86101,0.8610083 1.62072,0.405181 3.54533,-0.4051802 5.16605,0 1.55838,-0.5189541 1.60133,1.394784 2.58303,1.722018 2.6188,0.872933 15.99287,0 19.80319,0 3.58946,0 11.59993,-1.012408 14.63715,0 0.38506,0.128351 0.49798,0.679492 0.86101,0.861008 0.67994,0.339969 1.8569,-0.242043 2.58303,0 6.23664,2.078881 -1.35748,-0.248232 2.58302,1.722017 0.92522,0.462611 2.44786,-0.332057 3.44404,0 1.21765,0.405884 2.22638,1.316134 3.44403,1.722018 1.29805,0.432682 15.76948,0.483565 17.22017,0 0.78572,-0.261905 4.03398,-3.066675 5.16605,-3.444035 1.54982,-0.516605 3.61624,0.516605 5.16606,0 1.15516,-0.385055 1.56988,-1.907595 2.58302,-2.583026 1.06236,-0.70824 8.13738,-0.4164376 9.4711,-0.8610083 6.23664,-2.0788813 -1.35748,0.248232 2.58302,-1.7220172 1.76919,-0.8845958 5.04726,0.6136024 6.88807,0 6.23665,-2.0788813 -1.35747,0.2482319 2.58303,-1.7220172 0.97629,-0.4881482 21.31891,-0.6427741 23.24723,0 2.93942,0.9798071 2.81767,1.5183981 6.02706,3.4440344 0.49221,0.2953235 1.20861,-0.2567032 1.72202,0 0.72606,0.3630331 0.9519,1.4653143 1.72201,1.7220173 0.82687,0.275621 2.61768,-0.41318 3.44404,0 1.62759,0.813794 1.12381,2.84583 1.72202,3.444034 0.287,0.287003 2.29602,0.574006 2.58302,0.861009 0.20294,0.202942 -0.20294,0.658067 0,0.861009 0.20294,0.202941 0.57401,0 0.86101,0 0.57401,0.574005 1.27173,1.046586 1.72202,1.722017 0.42476,0.637146 0.35014,1.211152 0.86101,1.722017 0.76794,0.767944 1.36368,-1.288978 1.72201,0.861009 0.81294,4.877641 -1.27989,18.546535 0,22.386224 0.12835,0.385054 0.73266,0.475953 0.86101,0.861008 0.27228,0.816825 -0.38505,1.812916 0,2.583026 0.75176,1.50352 2.05032,0.123908 2.58303,1.722017 1.03321,3.099631 -1.03321,7.232472 0,10.332103 0.12835,0.385055 0.67949,0.497976 0.86101,0.861009 0.72656,1.453132 0.10373,3.651507 0.861,5.166052 0.28701,0.574005 1.43502,0.287003 1.72202,0.861008 1.12641,2.252807 -0.79555,6.223417 0,8.610086 0.20294,0.608825 0.65807,1.113193 0.86101,1.722018 0.5799,1.739694 -0.80981,4.407428 0,6.02706 0.18152,0.363033 0.73266,0.475954 0.86101,0.861009 0.88799,2.663977 0,23.648103 0,27.552273 0,8.5708 0.93305,18.72608 -1.72202,26.69127 -0.42414,1.27243 0.32402,3.00898 0,4.30504 -1.44988,5.79953 -0.0133,0.0133 -1.72202,1.72202 -0.49538,0.49538 -1.22802,3.31705 -1.72201,4.30504 -0.46261,0.92522 0.33206,2.44786 0,3.44404 -0.98139,2.94417 -0.71415,0.64072 -2.58303,3.44403 -0.75793,1.1369 0,5.46261 0,6.88807 0,1.94522 0.12835,-0.38505 -0.86101,2.58303 -1.56337,4.69012 1.53372,12.43071 -0.86101,17.22017 -0.89711,1.79423 0,19.0461 0,21.52521 0,8.61009 0,17.22018 0,25.83026 0,3.14714 -0.61578,7.25318 0,10.3321 0.17893,0.89463 1.57203,7.44911 1.72202,7.74908 0.287,0.57401 1.51908,0.25219 1.72202,0.86101 0.64205,1.92615 -0.90049,5.08709 0,6.88807 1.09882,2.19765 0.14863,2.16791 0.86101,4.30504 0.38267,1.14803 1.17077,2.34155 1.72201,3.44404 0.88392,1.76782 0,11.43582 0,13.77614 0,1.94522 -0.2567,-0.25671 1.72202,1.72201 0.60883,0.60883 0,1.72202 0,2.58303 0,2.24656 1.0379,8.2563 0,10.3321 -1.79165,3.58331 0.0594,-0.92045 -1.72202,0.86101 -1.51127,1.51127 -1.28956,14.62544 -1.72201,17.22017 -0.51763,3.10579 -1.81182,5.52525 -2.58303,8.61009 -0.65717,2.62869 0,6.82502 0,9.47109 0,7.74908 0,15.49816 0,23.24724 0,2.32296 -1.03997,8.25216 0,10.3321 0.68579,1.37157 2.67849,3.25311 1.72202,5.16605 -0.88462,1.76923 -2.57381,2.12949 -3.44404,4.30504 -0.31977,0.79943 0.38506,1.81292 0,2.58303 -0.56706,1.13413 -2.01596,2.3099 -2.58302,3.44403 -1.02429,2.04859 0,8.09657 0,10.33211 0,2.06543 -0.43214,21.95408 0,22.38622 0.45379,0.45379 1.36603,0.32703 1.72202,0.86101 0.6368,0.9552 -0.51341,2.41722 0,3.44403 0.12835,0.25671 0.65806,-0.20294 0.861,0 0.64176,0.64176 0.57401,1.72202 0.86101,2.58303 0.61201,1.83602 0.33792,10.40848 0.86101,11.19311 0.45029,0.67543 1.27173,1.04659 1.72202,1.72202 1.10576,1.65864 -0.80801,16.57114 0,19.8032 0.39697,1.58789 1.09673,2.19346 1.72202,3.44403 0.83396,1.66793 0,10.74077 0,12.91513 0,3.49838 0.96903,20.44816 0,22.38622 -0.18152,0.36304 -0.73266,0.47596 -0.86101,0.86101 -0.73698,2.21093 1.03202,5.68504 0,7.74908 -0.18152,0.36303 -0.73266,0.47595 -0.86101,0.86101 -1.22345,3.67034 1.46141,14.29735 0,17.22017 -0.46278,0.92556 -1.25924,1.65747 -1.72202,2.58303 -0.94042,1.88084 0,11.76301 0,14.63714 0,2.50669 -0.17319,22.21304 0,22.38623 0.20294,0.20294 0.60431,-0.12835 0.86101,0 1.06086,0.53043 1.45116,3.41982 0.86101,4.30504 -1.30464,1.95695 -2.65294,3.65378 -3.44404,6.02706 -1.19126,3.57381 1.32503,17.15314 0,19.8032 -0.36303,0.72607 -1.35898,0.99595 -1.72201,1.72202 -0.25671,0.5134 0.40588,1.31613 0,1.72201 -0.45379,0.45379 -1.26823,0.40722 -1.72202,0.86101 0,0.57401 0.3184,1.24442 0,1.72202 -0.0534,2.42437 -1.94127,0.21925 -2.58303,0.86101 -0.20294,0.20294 0.20295,0.65806 0,0.86101 -0.54788,0.54788 -2.34486,1.17243 -3.44403,1.72201 -1.8395,0.91975 -0.91566,2.63768 -1.72202,3.44404 -1.63721,1.63721 -4.89674,2.90542 -6.02706,5.16605 -0.2567,0.51341 0.25671,1.20861 0,1.72202 -0.48408,0.96817 -2.24305,1.56312 -2.58302,2.58302 -0.18152,0.54455 0.3184,1.24442 0,1.72202 -0.35599,0.53397 -1.26823,0.40722 -1.72202,0.86101 -0.287,0.287 -0.57401,2.29602 -0.86101,2.58302 -1.78146,1.78146 0.0696,-2.7223 -1.72202,0.86101 -0.12835,0.25671 0.20295,0.65807 0,0.86101 -0.20294,0.20294 -0.73265,-0.2567 -0.861,0 -0.25671,0.51341 0.18151,1.17747 0,1.72202 -0.32724,0.9817 -1.14802,1.72202 -1.72202,2.58302 -0.77283,1.15925 -3.0674,3.68622 -4.30505,4.30505 -0.2567,0.12835 -0.65806,-0.20294 -0.861,0 -0.64176,0.64176 -0.21925,1.94127 -0.86101,2.58302 -0.40589,0.40589 -1.46532,-0.5134 -1.72202,0 -0.2567,0.51341 0.18152,1.17747 0,1.72202 -0.49783,1.4935 -5.45436,6.17122 -6.88807,6.88807 -0.52182,0.26091 -2.22222,0.50021 -2.58302,0.86101 -0.4538,0.45379 -0.40722,1.26822 -0.86101,1.72202 -0.40589,0.40588 -1.31614,-0.40589 -1.72202,0 -1.78146,1.78145 2.7223,-0.0696 -0.86101,1.72201 -0.94179,0.4709 -2.55546,0.83344 -3.44403,1.72202 -1.52537,1.52537 -1.8869,4.46992 -3.44404,6.02706 -1.19521,1.19521 -3.00765,2.14665 -4.30504,3.44403 -1.01639,1.01639 -1.66357,2.52458 -2.58303,3.44404 -0.45379,0.45379 -1.18804,0.50502 -1.72201,0.86101 -1.17442,0.78294 -12.67601,11.33676 -12.91513,12.05412 -0.18152,0.54455 0.2567,1.20861 0,1.72202 -0.36304,0.72606 -1.27173,1.04658 -1.72202,1.72201 -0.1592,0.2388 0.20294,0.65807 0,0.86101 -0.20294,0.20294 -0.65807,-0.20294 -0.86101,0 -1.76057,1.76057 -2.14875,4.08414 -3.44403,6.02706 -0.94148,1.41221 -1.64156,0.30981 -2.58303,1.72202 -1.86141,2.79212 -5.00613,5.9471 -6.88807,6.88807 -3.58331,1.79165 0.92045,-0.0594 -0.86101,1.72202 -0.64175,0.64175 -1.82787,0.35757 -2.58302,0.861 -0.94983,0.63322 -1.56586,2.07445 -2.58303,2.58303 -0.9364,0.4682 -4.81879,0.51374 -5.16605,0.86101 -0.20294,0.20294 0.20294,0.65807 0,0.86101 -0.40588,0.40588 -1.20861,-0.25671 -1.72202,0 -0.85418,0.42709 -1.69117,1.42473 -2.58302,1.72201 -1.54982,0.51661 -3.61624,-0.5166 -5.16605,0 -0.60883,0.20295 -1.09273,0.73515 -1.72202,0.86101 -3.9694,0.79388 -9.08822,-1.27564 -12.91513,0 -6.23664,2.07888 1.35747,-0.24823 -2.58303,1.72202 -1.71986,0.85993 -6.45875,-1.29032 -7.74907,0 -1.78146,1.78146 2.7223,-0.0696 -0.86101,1.72202 -2.09584,1.04791 -5.50019,-0.74963 -7.74908,0 -2.7381,0.9127 -16.21562,3.0853 -18.94219,1.72201 -0.36303,-0.18151 -0.47595,-0.73265 -0.86101,-0.861 -2.57646,-0.85882 -5.97034,0.65993 -8.61008,0 -4.20871,-1.05218 -8.42861,-0.86101 -12.91513,-0.86101 -17.22018,0 -34.44035,0 -51.66052,0 -3.85582,0 -19.45825,-1.03348 -21.52522,0 -1.13256,0.56628 -2.27963,1.33388 -3.44403,1.72201 -2.85263,0.95088 -24.82609,0 -30.1353,0 -1.01506,0 -5.33887,0.6882 -6.02706,0 -0.20294,-0.20294 0.2567,-0.73265 0,-0.861 -2.66381,-1.33191 -9.86366,1.01715 -12.91513,0 -2.34193,-0.78065 -4.85665,-0.70631 -6.88807,-1.72202 -2.52562,-1.26281 -6.94547,1.26281 -9.47109,0 -0.92556,-0.46278 -1.65747,-1.25924 -2.58303,-1.72202 -1.81721,-0.90861 -11.21892,0 -13.77614,0 -10.6191,0 -21.23821,0 -31.85732,0 -2.33538,0 -24.663627,-0.30562 -24.969246,0 -0.453792,0.45379 -0.407217,1.26823 -0.861009,1.72202 -0.573001,0.573 -5.902858,0 -6.888069,0 -1.945222,0 0.385055,-0.12835 -2.583026,0.86101 -1.721011,0.57367 -5.029493,0 -6.888068,0 -2.453664,0 -6.278165,-0.77731 -8.610087,0 -5.85271,1.9509 -20.630881,1.73868 -25.830258,-0.86101 -2.012461,-1.00623 0.994683,1.78885 -2.583026,0 -0.574005,-0.287 -0.287003,-1.43502 -0.861008,-1.72202 -1.926769,-0.96338 -5.657258,0.52296 -7.749078,0 -0.393764,-0.0984 -0.497975,-0.67949 -0.861008,-0.86101 -1.001699,-0.50085 -3.559614,0.74543 -4.305043,0 -0.202942,-0.20294 0.202941,-0.65806 0,-0.86101 -0.946825,-0.94682 -3.347049,-0.66703 -4.305043,-2.58302 -1.0789,-2.1578 0.118702,-8.37268 -0.861009,-10.33211 -0.287003,-0.574 -1.4350144,-0.287 -1.7220173,-0.861 -0.8033309,-1.60667 0.5737833,-4.30572 0,-6.02706 -0.1283516,-0.38506 -0.679492,-0.49798 -0.8610086,-0.86101 -0.4941429,-0.98829 0.2063855,-2.17026 -0.8610086,-4.30505 -0.6888069,-1.37761 0.6888069,-3.78843 0,-5.16605 -2.5637218,-5.12744 -2.6742046,-29.95294 0,-35.30135 1.1817038,-2.36341 -0.8117734,-11.39005 0,-14.63715 0.1556492,-0.62259 0.6580669,-1.11319 0.8610086,-1.72201 0.4064461,-1.21934 0.3712098,-18.31836 0,-19.8032 -2.1752908,-8.70117 -0.8610086,-19.2646 -0.8610086,-28.41329 0,-2.02204 0.6323598,-4.99099 0,-6.88807 -0.7892878,-2.36786 -0.6939578,-4.83195 -1.7220172,-6.88806 -1.3937048,-2.78741 1.2131243,-9.88232 0,-12.91513 -0.3014826,-0.75371 -1.4653141,-0.95191 -1.7220172,-1.72202 -0.3348367,-1.00451 0.2511275,-4.77142 0,-6.02706 -0.2755123,-1.37756 -1.2759145,-2.96674 -1.7220173,-4.30504 -0.5284557,-1.58537 -0.2149099,-3.22776 -0.8610086,-5.16606 -1.45526742,-4.3658 1.1167464,-10.17016 0,-14.63714 C 0.68257656,498.67127 1.3128492,502.8717 0,500.246 c -1.5369825,-3.07396 1.2670124,-14.28014 0,-18.08118 -0.12835159,-0.38505 -0.67949206,-0.49797 -0.86100861,-0.86101 -0.19598759,-0.39197 -0.33600769,-18.27017 0,-18.94219 0.18151655,-0.36303 0.73265702,-0.47595 0.86100861,-0.861 0.41746225,-1.25239 -0.48985342,-3.08041 0,-4.30505 0.3843164,-0.96079 1.259239,-1.65747 1.7220172,-2.58302 0.485369,-0.97074 0,-3.25395 0,-4.30505 0,-5.15154 -1.33500548,-12.82814 0.8610086,-17.22017 0.5551901,-1.11038 -0.3072434,-2.82955 0.8610086,-5.16605 1.1480115,-2.29602 -1.1480114,-6.31406 0,-8.61009 0.1815166,-0.36303 0.7326571,-0.47595 0.8610087,-0.86101 0.1852905,-0.55587 -0.3941154,-2.85286 0,-3.44403 0.4502871,-0.67543 1.27173,-1.04659 1.7220172,-1.72202 1.1526921,-1.72904 -0.6723955,-5.73189 0,-7.74907 0.8334752,-2.50043 0.8610086,-4.1875 0.8610086,-6.88807 0,-5.58658 0.8743038,-12.01424 -0.8610086,-17.22018 -0.8922979,-2.67689 0,-7.58837 0,-10.3321 0,-8.61009 0,-17.22017 0,-25.83026 0,-8.03608 0,-16.07216 0,-24.10824 0,-1.98267 0.7023794,-9.78835 0,-11.19311 -1.9702492,-3.9405 0.3568641,3.65362 -1.7220172,-2.58303 -0.941512,-2.82453 0,-22.80027 0,-25.83025 0,-18.65519 0,-37.31038 0,-55.96556 0,-5.59995 0.8804527,-11.99579 -0.8610087,-17.22018 -0.8464741,-2.53942 0.1375743,-5.61433 -0.8610086,-8.61008 -0.392601,-1.17781 0.7918787,-4.37418 0,-5.16605 -0.2029416,-0.20295 -0.6580669,0.20294 -0.8610086,0 -1.25595946,-1.25596 0.6921788,-6.87964 0,-8.61009 C 1.2453314,184.78615 0.47668582,183.72554 0,182.53383 -0.38205807,181.57868 -0.31309541,172.28 0,171.34071 c 2.1748242,-6.52447 -0.31090492,0.31091 1.7220172,-1.72201 0.3550299,-0.35503 0.8610086,-14.84321 0.8610086,-17.22018 0,-3.41733 -1.0721529,-8.83766 0,-12.05412 0.1283516,-0.38505 0.7326571,-0.47595 0.8610086,-0.86101 0.5166052,-1.54981 -0.5166051,-3.61623 0,-5.16605 0.1283516,-0.38505 0.7326571,-0.47595 0.8610087,-0.86101 0.5577662,-1.67329 -0.7845244,-4.45801 0,-6.02706 0.2870028,-0.574 1.4350143,-0.287 1.7220172,-0.861 0.5835942,-1.16719 0.3578387,-21.31271 0,-22.38623 -0.2029417,-0.60882 -0.4072173,-1.26822 -0.8610086,-1.72202 -0.2029417,-0.20294 -0.7914002,0.27844 -0.8610086,0 -0.5178246,-2.07129 0.9829356,-6.64421 0,-8.610082 -0.1283516,-0.256703 -0.7914002,0.278434 -0.8610087,0 -0.2784336,-1.113734 0.188732,-2.311642 0,-3.444034 -0.1055043,-0.633026 -0.6580669,-1.113192 -0.8610086,-1.722017 -1.06646,-3.19938 0,-8.64082 0,-12.054121 0,-3.524691 0.8976544,-9.617677 1.7220173,-12.915129 0.4727106,-1.890842 -0.4727107,-4.136218 0,-6.02706 1.4498827,-5.799531 0.013299,-0.0133 1.7220172,-1.722017 0.6460055,-0.646006 0,-6.747419 0,-7.749078 0,-4.423114 1.0380869,-24.096049 0,-26.691267 -1.0497917,-2.624479 -2.296023,-5.166051 -3.4440345,-7.749077 z"
     id="path91" />
  <path
     style="fill:#ffffff"
     d="m 231.61132,180.81181 -40.46741,200.615"
     id="path31" />
  <path
     style="opacity:1;fill:#b91817;fill-opacity:1;stroke:#506036;stroke-width:20.524;stroke-dasharray:none;stroke-opacity:1"
     d="M -7.6911184,692.25343 376.20281,691.38741 Z"
     id="path81" />
  <path
     style="opacity:1;fill:#b91817;fill-opacity:1;stroke:#506036;stroke-width:23.4262;stroke-dasharray:none;stroke-opacity:1"
     d="M 0.17270448,12.419671 502.99115,11.558263 Z"
     id="path81-53" />
  <path
     style="opacity:1;fill:#b91817;fill-opacity:1;stroke:#506036;stroke-width:27.5452;stroke-dasharray:none;stroke-opacity:1"
     d="M 12.549533,700.59544 11.694271,0.41816475 Z"
     id="path81-1" />
  <path
     style="opacity:1;fill:#3a3617;fill-opacity:1;stroke:#506036;stroke-width:25.156;stroke-dasharray:none;stroke-opacity:1"
     d="M 489.12712,-0.1055869 489.98508,582.03679 Z"
     id="path81-5" />
  <path
     style="opacity:1;fill:#b91817;fill-opacity:1;stroke:#506036;stroke-width:23.7;stroke-dasharray:none;stroke-opacity:1"
     d="M 598.98041,470.76027 235.51187,835.44645 Z"
     id="path81-10" />
  <path
     style="opacity:1;fill:#b91817;fill-opacity:1;stroke:#506036;stroke-width:5;stroke-dasharray:none;stroke-opacity:1"
     d="M 277.57336,820.91754 641.04191,456.23136 Z"
     id="path81-4" />
  <ellipse
     style="opacity:1;fill:#415f3e;fill-opacity:1;stroke:#00451f;stroke-width:5;stroke-dasharray:none;stroke-opacity:1;stroke-miterlimit:0"
     id="path82"
     cx="84.378845"
     cy="87.392365"
     rx="65.467758"
     ry="67.620277" />
  <path
     style="fill:#6b311f;fill-opacity:1;stroke:#6b311f;stroke-width:5.27471;stroke-miterlimit:0;stroke-dasharray:none;stroke-opacity:1"
     d="M 35.947109,108.05658 H 95.356705 Z"
     id="path8" />
  <path
     style="fill:#6b311f;fill-opacity:1;stroke:#6b311f;stroke-width:4.35084;stroke-miterlimit:0;stroke-dasharray:none;stroke-opacity:1"
     d="M 90.684911,109.96727 H 131.10572 Z"
     id="path8-9" />
  <path
     style="fill:#6b311f;fill-opacity:1;stroke:#6b311f;stroke-width:6.08642;stroke-miterlimit:0;stroke-dasharray:none;stroke-opacity:1"
     d="M 38.656775,107.36928 64.879507,50.410541 Z"
     id="path9" />
  <path
     style="fill:#6b311f;fill-opacity:1;stroke:#6b311f;stroke-width:3.74267;stroke-miterlimit:0;stroke-dasharray:none;stroke-opacity:1"
     d="M 92.600477,111.52995 109.92058,78.921804 Z"
     id="path9-6" />
  <path
     style="fill:#6b311f;fill-opacity:1;stroke:#6b311f;stroke-width:6.41624;stroke-miterlimit:0;stroke-dasharray:none;stroke-opacity:1"
     d="M 92.693665,107.79387 64.847394,48.185288 Z"
     id="path9-2" />
  <path
     style="fill:#6b311f;fill-opacity:1;stroke:#6b311f;stroke-width:4.05668;stroke-miterlimit:0;stroke-dasharray:none;stroke-opacity:1"
     d="M 129.73699,109.83971 109.5654,76.945745 Z"
     id="path9-2-7" />
  <path
     style="fill:#6b311f;fill-opacity:1;stroke:#6b311f;stroke-width:0.582478;stroke-miterlimit:0;stroke-dasharray:none;stroke-opacity:1"
     d="m 54.147867,81.136354 c 6.121819,-13.296631 11.167807,-24.135093 11.213305,-24.085471 0.0455,0.04962 1.524333,3.183182 3.286299,6.963466 1.761966,3.780283 5.653275,12.115545 8.647354,18.522805 2.994078,6.407259 6.542535,14.005602 7.885458,16.885205 1.342924,2.879601 2.517779,5.382801 2.61079,5.562671 l 0.169111,0.32702 H 65.488735 43.017286 Z"
     id="path10" />
  <path
     style="fill:#6b311f;fill-opacity:1;stroke:#6b311f;stroke-width:0.582478;stroke-miterlimit:0;stroke-dasharray:none;stroke-opacity:1"
     d="m 96.995248,107.37985 c 0.589733,-1.15472 13.253242,-24.972859 13.314372,-25.042327 0.0402,-0.04572 1.28422,1.893929 2.76441,4.310339 2.23389,3.646847 6.50976,10.620026 11.88311,19.379238 0.53605,0.87382 0.97464,1.62085 0.97464,1.66006 0,0.0392 -6.55423,0.0713 -14.56495,0.0713 H 96.801885 Z"
     id="path11" />
  <path
     style="fill:#6b311f;fill-opacity:1;stroke:#4d1e11;stroke-width:1.10000033;stroke-miterlimit:0;stroke-dasharray:none;stroke-opacity:1"
     d="M 36.080184,105.60456 61.945887,49.58966 Z"
     id="path12" />
  <path
     style="fill:#6b311f;fill-opacity:1;stroke:#4d1e11;stroke-width:1.1;stroke-miterlimit:0;stroke-dasharray:none;stroke-opacity:1"
     d="m 61.122139,49.58966 c 6.589988,-2.306496 6.589988,-2.306496 6.589988,-2.306496 z"
     id="path13" />
  <path
     style="fill:#6b311f;fill-opacity:1;stroke:#4d1e11;stroke-width:1.1;stroke-miterlimit:0;stroke-dasharray:none;stroke-opacity:1"
     d="M 67.382627,46.953664 94.401578,103.13331 Z"
     id="path14" />
  <path
     style="fill:#6b311f;fill-opacity:1;stroke:#4d1e11;stroke-width:1.1;stroke-miterlimit:0;stroke-dasharray:none;stroke-opacity:1"
     d="m 35.915435,104.94556 0.164749,4.61299 z"
     id="path15" />
  <path
     style="fill:#6b311f;fill-opacity:1;stroke:#4d1e11;stroke-width:1.1;stroke-miterlimit:0;stroke-dasharray:none;stroke-opacity:1"
     d="m 35.915435,110.0528 54.202651,0.16475 z"
     id="path16" />
  <path
     style="fill:#6b311f;fill-opacity:1;stroke:#4d1e11;stroke-width:1.04448;stroke-miterlimit:0;stroke-dasharray:none;stroke-opacity:1"
     d="m 90.656269,109.794 0.669352,2.33984 z"
     id="path17" />
  <path
     style="fill:#6b311f;fill-opacity:1;stroke:#4d1e11;stroke-width:1.08026;stroke-miterlimit:0;stroke-dasharray:none;stroke-opacity:1"
     d="M 91.094577,109.89551 107.59356,78.7429 Z"
     id="path18" />
  <path
     style="fill:#6b311f;fill-opacity:1;stroke:#4d1e11;stroke-width:1.1;stroke-miterlimit:0;stroke-dasharray:none;stroke-opacity:1"
     d="m 107.58155,78.585607 3.45975,-2.635995 z"
     id="path19" />
  <path
     style="fill:#6b311f;fill-opacity:1;stroke:#4d1e11;stroke-width:1.1;stroke-miterlimit:0;stroke-dasharray:none;stroke-opacity:1"
     d="m 110.87655,75.949612 20.09946,31.302438 z"
     id="path20" />
  <path
     style="fill:#6b311f;fill-opacity:1;stroke:#4d1e11;stroke-width:1.1;stroke-miterlimit:0;stroke-dasharray:none;stroke-opacity:1"
     d="m 130.81126,106.92256 0.3295,5.10724 z"
     id="path21" />
  <path
     style="fill:#6b311f;fill-opacity:1;stroke:#4d1e11;stroke-width:1.1;stroke-miterlimit:0;stroke-dasharray:none;stroke-opacity:1"
     d="M 131.30551,111.86505 H 91.436083 Z"
     id="path22" />
  <path
     style="fill:#6b311f;fill-opacity:1;stroke:#4d1e11;stroke-width:1.1;stroke-miterlimit:0;stroke-dasharray:none;stroke-opacity:1"
     d="m 66.888378,54.6969 7.248987,16.969219 z"
     id="path23" />
  <path
     style="fill:#6b311f;fill-opacity:1;stroke:#4d1e11;stroke-width:1.1;stroke-miterlimit:0;stroke-dasharray:none;stroke-opacity:1"
     d="M 59.309892,71.666119 54.6969,80.892103 Z"
     id="path24" />
  <path
     style="fill:#6b311f;fill-opacity:1;stroke:#4d1e11;stroke-width:1.1;stroke-miterlimit:0;stroke-dasharray:none;stroke-opacity:1"
     d="m 55.0264,79.903604 8.731734,5.76624 z"
     id="path25" />
  <path
     style="fill:#6b311f;fill-opacity:1;stroke:#4d1e11;stroke-width:1.1;stroke-miterlimit:0;stroke-dasharray:none;stroke-opacity:1"
     d="m 63.428634,85.669844 -9.061233,9.720232 z"
     id="path26" />
  <path
     style="fill:#6b311f;fill-opacity:1;stroke:#4d1e11;stroke-width:1.1;stroke-miterlimit:0;stroke-dasharray:none;stroke-opacity:1"
     d="m 78.420857,89.129588 -4.612992,9.061233 z"
     id="path27" />
  <path
     style="fill:#6b311f;fill-opacity:1;stroke:#4d1e11;stroke-width:1.1;stroke-miterlimit:0;stroke-dasharray:none;stroke-opacity:1"
     d="m 100.33257,104.45131 14.82747,-2.636 z"
     id="path28" />
  <path
     style="fill:#6b311f;fill-opacity:1;stroke:#4d1e11;stroke-width:1.1;stroke-miterlimit:0;stroke-dasharray:none;stroke-opacity:1"
     d="M 114.66579,101.48581 106.09881,91.436083 Z"
     id="path29" />
  <path
     style="fill:#6b311f;fill-opacity:1;stroke:#4d1e11;stroke-width:1.1;stroke-miterlimit:0;stroke-dasharray:none;stroke-opacity:1"
     d="m 120.10253,100.99157 3.13025,6.75473 z"
     id="path30" />
</svg>
