<?xml version="1.0" encoding="UTF-8" standalone="no"?>
<svg
   width="500"
   height="700"
   viewBox="0 0 500 700"
   preserveAspectRatio="xMidYMid meet"
   version="1.1"
   id="svg1"
   sodipodi:docname="card_wind.svg"
   inkscape:version="1.2.1 (9c6d41e410, 2022-07-14)"
   xmlns:inkscape="http://www.inkscape.org/namespaces/inkscape"
   xmlns:sodipodi="http://sodipodi.sourceforge.net/DTD/sodipodi-0.dtd"
   xmlns:xlink="http://www.w3.org/1999/xlink"
   xmlns="http://www.w3.org/2000/svg"
   xmlns:svg="http://www.w3.org/2000/svg">
  <defs
     id="defs1">
    <linearGradient
       id="swatch84"
       inkscape:swatch="solid">
      <stop
         style="stop-color:#693017;stop-opacity:1;"
         offset="0"
         id="stop84" />
    </linearGradient>
    <radialGradient
       inkscape:collect="always"
       xlink:href="#linearGradient4067"
       id="radialGradient4069"
       cx="288.272"
       cy="288.23126"
       fx="288.272"
       fy="288.23126"
       r="115.29212"
       gradientTransform="matrix(1.1434014,0,0,0.45707226,7.5487834,-49.821447)"
       gradientUnits="userSpaceOnUse" />
    <linearGradient
       inkscape:collect="always"
       id="linearGradient4067">
      <stop
         style="stop-color:#310d00;stop-opacity:1;"
         offset="0"
         id="stop4063" />
      <stop
         style="stop-color:#600b00;stop-opacity:1;"
         offset="1"
         id="stop4065" />
    </linearGradient>
    <radialGradient
       inkscape:collect="always"
       xlink:href="#linearGradient4110"
       id="radialGradient4069-2"
       cx="288.272"
       cy="288.23126"
       fx="288.272"
       fy="288.23126"
       r="115.29212"
       gradientTransform="matrix(1.1434014,0,0,0.45707226,-148.24964,479.98419)"
       gradientUnits="userSpaceOnUse" />
    <linearGradient
       inkscape:collect="always"
       id="linearGradient4110">
      <stop
         style="stop-color:#310d61;stop-opacity:1;"
         offset="0"
         id="stop4106" />
      <stop
         style="stop-color:#173757;stop-opacity:1;"
         offset="1"
         id="stop4108" />
    </linearGradient>
  </defs>
  <sodipodi:namedview
     id="namedview1"
     pagecolor="#ffffff"
     bordercolor="#000000"
     borderopacity="0.25"
     inkscape:showpageshadow="2"
     inkscape:pageopacity="0.0"
     inkscape:pagecheckerboard="0"
     inkscape:deskcolor="#d1d1d1"
     inkscape:zoom="1.1614286"
     inkscape:cx="72.324721"
     inkscape:cy="349.99999"
     inkscape:window-width="2400"
     inkscape:window-height="1261"
     inkscape:window-x="2391"
     inkscape:window-y="-9"
     inkscape:window-maximized="1"
     inkscape:current-layer="svg1"
     showgrid="false" />
  <path
     style="opacity:1;fill:#c9c6de;fill-opacity:1;stroke:none;stroke-width:5;stroke-dasharray:none;stroke-opacity:1"
     d="m 2.5830258,13.776138 c 7.1750718,0 14.3501432,0 21.5252152,0 1.602424,0 3.706763,-0.48643 5.166052,0 3.058117,1.019372 6.533298,-0.118257 9.471094,0.861008 1.217651,0.405884 2.177983,1.511009 3.444035,1.722018 1.415489,0.235914 2.912875,-0.348043 4.305043,0 3.784571,0.946142 7.259309,0.861008 11.193112,0.861008 3.785138,0 11.427582,-1.069855 14.637146,0 0.385055,0.128352 0.463007,0.781409 0.861009,0.861009 3.627597,0.725519 8.356085,0 12.05412,0 10.332104,0 20.664208,0 30.996308,0 12.91513,0 25.83026,0 38.74539,0 5.57466,0 13.59004,1.07043 18.94219,0 2.91421,-0.582842 5.65171,-1.130343 8.61009,-1.722017 1.40044,-0.28009 2.89604,0.35225 4.30504,0 0.78753,-0.196883 0.99595,-1.358985 1.72202,-1.722018 1.54798,-0.77399 9.11027,0 11.19311,0 9.18409,0 18.36818,0 27.55227,0 11.19311,0 22.38623,0 33.57934,0 4.39002,0 10.37679,1.065088 14.63715,0 2.19506,-0.548766 3.95671,-1.031903 6.02706,-1.722017 1.27243,-0.424144 3.00898,0.324015 4.30504,0 2.10243,-0.525607 3.18563,-1.592813 5.16605,-2.583026 2.74096,-1.3704774 17.25583,1.067346 21.52522,0 0.39376,-0.09844 0.49797,-0.6794917 0.861,-0.8610083 0.52104,-0.2605173 19.12352,-0.3851733 20.66421,0 0.39377,0.098441 0.46724,0.7625673 0.86101,0.8610083 1.62072,0.405181 3.54533,-0.4051802 5.16605,0 1.55838,-0.5189541 1.60133,1.394784 2.58303,1.722018 2.6188,0.872933 15.99287,0 19.80319,0 3.58946,0 11.59993,-1.012408 14.63715,0 0.38506,0.128351 0.49798,0.679492 0.86101,0.861008 0.67994,0.339969 1.8569,-0.242043 2.58303,0 6.23664,2.078881 -1.35748,-0.248232 2.58302,1.722017 0.92522,0.462611 2.44786,-0.332057 3.44404,0 1.21765,0.405884 2.22638,1.316134 3.44403,1.722018 1.29805,0.432682 15.76948,0.483565 17.22017,0 0.78572,-0.261905 4.03398,-3.066675 5.16605,-3.444035 1.54982,-0.516605 3.61624,0.516605 5.16606,0 1.15516,-0.385055 1.56988,-1.907595 2.58302,-2.583026 1.06236,-0.70824 8.13738,-0.4164376 9.4711,-0.8610083 6.23664,-2.0788813 -1.35748,0.248232 2.58302,-1.7220172 1.76919,-0.8845958 5.04726,0.6136024 6.88807,0 6.23665,-2.0788813 -1.35747,0.2482319 2.58303,-1.7220172 0.97629,-0.4881482 21.31891,-0.6427741 23.24723,0 2.93942,0.9798071 2.81767,1.5183981 6.02706,3.4440344 0.49221,0.2953235 1.20861,-0.2567032 1.72202,0 0.72606,0.3630331 0.9519,1.4653143 1.72201,1.7220173 0.82687,0.275621 2.61768,-0.41318 3.44404,0 1.62759,0.813794 1.12381,2.84583 1.72202,3.444034 0.287,0.287003 2.29602,0.574006 2.58302,0.861009 0.20294,0.202942 -0.20294,0.658067 0,0.861009 0.20294,0.202941 0.57401,0 0.86101,0 0.57401,0.574005 1.27173,1.046586 1.72202,1.722017 0.42476,0.637146 0.35014,1.211152 0.86101,1.722017 0.76794,0.767944 1.36368,-1.288978 1.72201,0.861009 0.81294,4.877641 -1.27989,18.546535 0,22.386224 0.12835,0.385054 0.73266,0.475953 0.86101,0.861008 0.27228,0.816825 -0.38505,1.812916 0,2.583026 0.75176,1.50352 2.05032,0.123908 2.58303,1.722017 1.03321,3.099631 -1.03321,7.232472 0,10.332103 0.12835,0.385055 0.67949,0.497976 0.86101,0.861009 0.72656,1.453132 0.10373,3.651507 0.861,5.166052 0.28701,0.574005 1.43502,0.287003 1.72202,0.861008 1.12641,2.252807 -0.79555,6.223417 0,8.610086 0.20294,0.608825 0.65807,1.113193 0.86101,1.722018 0.5799,1.739694 -0.80981,4.407428 0,6.02706 0.18152,0.363033 0.73266,0.475954 0.86101,0.861009 0.88799,2.663977 0,23.648103 0,27.552273 0,8.5708 0.93305,18.72608 -1.72202,26.69127 -0.42414,1.27243 0.32402,3.00898 0,4.30504 -1.44988,5.79953 -0.0133,0.0133 -1.72202,1.72202 -0.49538,0.49538 -1.22802,3.31705 -1.72201,4.30504 -0.46261,0.92522 0.33206,2.44786 0,3.44404 -0.98139,2.94417 -0.71415,0.64072 -2.58303,3.44403 -0.75793,1.1369 0,5.46261 0,6.88807 0,1.94522 0.12835,-0.38505 -0.86101,2.58303 -1.56337,4.69012 1.53372,12.43071 -0.86101,17.22017 -0.89711,1.79423 0,19.0461 0,21.52521 0,8.61009 0,17.22018 0,25.83026 0,3.14714 -0.61578,7.25318 0,10.3321 0.17893,0.89463 1.57203,7.44911 1.72202,7.74908 0.287,0.57401 1.51908,0.25219 1.72202,0.86101 0.64205,1.92615 -0.90049,5.08709 0,6.88807 1.09882,2.19765 0.14863,2.16791 0.86101,4.30504 0.38267,1.14803 1.17077,2.34155 1.72201,3.44404 0.88392,1.76782 0,11.43582 0,13.77614 0,1.94522 -0.2567,-0.25671 1.72202,1.72201 0.60883,0.60883 0,1.72202 0,2.58303 0,2.24656 1.0379,8.2563 0,10.3321 -1.79165,3.58331 0.0594,-0.92045 -1.72202,0.86101 -1.51127,1.51127 -1.28956,14.62544 -1.72201,17.22017 -0.51763,3.10579 -1.81182,5.52525 -2.58303,8.61009 -0.65717,2.62869 0,6.82502 0,9.47109 0,7.74908 0,15.49816 0,23.24724 0,2.32296 -1.03997,8.25216 0,10.3321 0.68579,1.37157 2.67849,3.25311 1.72202,5.16605 -0.88462,1.76923 -2.57381,2.12949 -3.44404,4.30504 -0.31977,0.79943 0.38506,1.81292 0,2.58303 -0.56706,1.13413 -2.01596,2.3099 -2.58302,3.44403 -1.02429,2.04859 0,8.09657 0,10.33211 0,2.06543 -0.43214,21.95408 0,22.38622 0.45379,0.45379 1.36603,0.32703 1.72202,0.86101 0.6368,0.9552 -0.51341,2.41722 0,3.44403 0.12835,0.25671 0.65806,-0.20294 0.861,0 0.64176,0.64176 0.57401,1.72202 0.86101,2.58303 0.61201,1.83602 0.33792,10.40848 0.86101,11.19311 0.45029,0.67543 1.27173,1.04659 1.72202,1.72202 1.10576,1.65864 -0.80801,16.57114 0,19.8032 0.39697,1.58789 1.09673,2.19346 1.72202,3.44403 0.83396,1.66793 0,10.74077 0,12.91513 0,3.49838 0.96903,20.44816 0,22.38622 -0.18152,0.36304 -0.73266,0.47596 -0.86101,0.86101 -0.73698,2.21093 1.03202,5.68504 0,7.74908 -0.18152,0.36303 -0.73266,0.47595 -0.86101,0.86101 -1.22345,3.67034 1.46141,14.29735 0,17.22017 -0.46278,0.92556 -1.25924,1.65747 -1.72202,2.58303 -0.94042,1.88084 0,11.76301 0,14.63714 0,2.50669 -0.17319,22.21304 0,22.38623 0.20294,0.20294 0.60431,-0.12835 0.86101,0 1.06086,0.53043 1.45116,3.41982 0.86101,4.30504 -1.30464,1.95695 -2.65294,3.65378 -3.44404,6.02706 -1.19126,3.57381 1.32503,17.15314 0,19.8032 -0.36303,0.72607 -1.35898,0.99595 -1.72201,1.72202 -0.25671,0.5134 0.40588,1.31613 0,1.72201 -0.45379,0.45379 -1.26823,0.40722 -1.72202,0.86101 0,0.57401 0.3184,1.24442 0,1.72202 -0.0534,2.42437 -1.94127,0.21925 -2.58303,0.86101 -0.20294,0.20294 0.20295,0.65806 0,0.86101 -0.54788,0.54788 -2.34486,1.17243 -3.44403,1.72201 -1.8395,0.91975 -0.91566,2.63768 -1.72202,3.44404 -1.63721,1.63721 -4.89674,2.90542 -6.02706,5.16605 -0.2567,0.51341 0.25671,1.20861 0,1.72202 -0.48408,0.96817 -2.24305,1.56312 -2.58302,2.58302 -0.18152,0.54455 0.3184,1.24442 0,1.72202 -0.35599,0.53397 -1.26823,0.40722 -1.72202,0.86101 -0.287,0.287 -0.57401,2.29602 -0.86101,2.58302 -1.78146,1.78146 0.0696,-2.7223 -1.72202,0.86101 -0.12835,0.25671 0.20295,0.65807 0,0.86101 -0.20294,0.20294 -0.73265,-0.2567 -0.861,0 -0.25671,0.51341 0.18151,1.17747 0,1.72202 -0.32724,0.9817 -1.14802,1.72202 -1.72202,2.58302 -0.77283,1.15925 -3.0674,3.68622 -4.30505,4.30505 -0.2567,0.12835 -0.65806,-0.20294 -0.861,0 -0.64176,0.64176 -0.21925,1.94127 -0.86101,2.58302 -0.40589,0.40589 -1.46532,-0.5134 -1.72202,0 -0.2567,0.51341 0.18152,1.17747 0,1.72202 -0.49783,1.4935 -5.45436,6.17122 -6.88807,6.88807 -0.52182,0.26091 -2.22222,0.50021 -2.58302,0.86101 -0.4538,0.45379 -0.40722,1.26822 -0.86101,1.72202 -0.40589,0.40588 -1.31614,-0.40589 -1.72202,0 -1.78146,1.78145 2.7223,-0.0696 -0.86101,1.72201 -0.94179,0.4709 -2.55546,0.83344 -3.44403,1.72202 -1.52537,1.52537 -1.8869,4.46992 -3.44404,6.02706 -1.19521,1.19521 -3.00765,2.14665 -4.30504,3.44403 -1.01639,1.01639 -1.66357,2.52458 -2.58303,3.44404 -0.45379,0.45379 -1.18804,0.50502 -1.72201,0.86101 -1.17442,0.78294 -12.67601,11.33676 -12.91513,12.05412 -0.18152,0.54455 0.2567,1.20861 0,1.72202 -0.36304,0.72606 -1.27173,1.04658 -1.72202,1.72201 -0.1592,0.2388 0.20294,0.65807 0,0.86101 -0.20294,0.20294 -0.65807,-0.20294 -0.86101,0 -1.76057,1.76057 -2.14875,4.08414 -3.44403,6.02706 -0.94148,1.41221 -1.64156,0.30981 -2.58303,1.72202 -1.86141,2.79212 -5.00613,5.9471 -6.88807,6.88807 -3.58331,1.79165 0.92045,-0.0594 -0.86101,1.72202 -0.64175,0.64175 -1.82787,0.35757 -2.58302,0.861 -0.94983,0.63322 -1.56586,2.07445 -2.58303,2.58303 -0.9364,0.4682 -4.81879,0.51374 -5.16605,0.86101 -0.20294,0.20294 0.20294,0.65807 0,0.86101 -0.40588,0.40588 -1.20861,-0.25671 -1.72202,0 -0.85418,0.42709 -1.69117,1.42473 -2.58302,1.72201 -1.54982,0.51661 -3.61624,-0.5166 -5.16605,0 -0.60883,0.20295 -1.09273,0.73515 -1.72202,0.86101 -3.9694,0.79388 -9.08822,-1.27564 -12.91513,0 -6.23664,2.07888 1.35747,-0.24823 -2.58303,1.72202 -1.71986,0.85993 -6.45875,-1.29032 -7.74907,0 -1.78146,1.78146 2.7223,-0.0696 -0.86101,1.72202 -2.09584,1.04791 -5.50019,-0.74963 -7.74908,0 -2.7381,0.9127 -16.21562,3.0853 -18.94219,1.72201 -0.36303,-0.18151 -0.47595,-0.73265 -0.86101,-0.861 -2.57646,-0.85882 -5.97034,0.65993 -8.61008,0 -4.20871,-1.05218 -8.42861,-0.86101 -12.91513,-0.86101 -17.22018,0 -34.44035,0 -51.66052,0 -3.85582,0 -19.45825,-1.03348 -21.52522,0 -1.13256,0.56628 -2.27963,1.33388 -3.44403,1.72201 -2.85263,0.95088 -24.82609,0 -30.1353,0 -1.01506,0 -5.33887,0.6882 -6.02706,0 -0.20294,-0.20294 0.2567,-0.73265 0,-0.861 -2.66381,-1.33191 -9.86366,1.01715 -12.91513,0 -2.34193,-0.78065 -4.85665,-0.70631 -6.88807,-1.72202 -2.52562,-1.26281 -6.94547,1.26281 -9.47109,0 -0.92556,-0.46278 -1.65747,-1.25924 -2.58303,-1.72202 -1.81721,-0.90861 -11.21892,0 -13.77614,0 -10.6191,0 -21.23821,0 -31.85732,0 -2.33538,0 -24.663627,-0.30562 -24.969246,0 -0.453792,0.45379 -0.407217,1.26823 -0.861009,1.72202 -0.573001,0.573 -5.902858,0 -6.888069,0 -1.945222,0 0.385055,-0.12835 -2.583026,0.86101 -1.721011,0.57367 -5.029493,0 -6.888068,0 -2.453664,0 -6.278165,-0.77731 -8.610087,0 -5.85271,1.9509 -20.630881,1.73868 -25.830258,-0.86101 -2.012461,-1.00623 0.994683,1.78885 -2.583026,0 -0.574005,-0.287 -0.287003,-1.43502 -0.861008,-1.72202 -1.926769,-0.96338 -5.657258,0.52296 -7.749078,0 -0.393764,-0.0984 -0.497975,-0.67949 -0.861008,-0.86101 -1.001699,-0.50085 -3.559614,0.74543 -4.305043,0 -0.202942,-0.20294 0.202941,-0.65806 0,-0.86101 -0.946825,-0.94682 -3.347049,-0.66703 -4.305043,-2.58302 -1.0789,-2.1578 0.118702,-8.37268 -0.861009,-10.33211 -0.287003,-0.574 -1.4350144,-0.287 -1.7220173,-0.861 -0.8033309,-1.60667 0.5737833,-4.30572 0,-6.02706 -0.1283516,-0.38506 -0.679492,-0.49798 -0.8610086,-0.86101 -0.4941429,-0.98829 0.2063855,-2.17026 -0.8610086,-4.30505 -0.6888069,-1.37761 0.6888069,-3.78843 0,-5.16605 -2.5637218,-5.12744 -2.6742046,-29.95294 0,-35.30135 1.1817038,-2.36341 -0.8117734,-11.39005 0,-14.63715 0.1556492,-0.62259 0.6580669,-1.11319 0.8610086,-1.72201 0.4064461,-1.21934 0.3712098,-18.31836 0,-19.8032 -2.1752908,-8.70117 -0.8610086,-19.2646 -0.8610086,-28.41329 0,-2.02204 0.6323598,-4.99099 0,-6.88807 -0.7892878,-2.36786 -0.6939578,-4.83195 -1.7220172,-6.88806 -1.3937048,-2.78741 1.2131243,-9.88232 0,-12.91513 -0.3014826,-0.75371 -1.4653141,-0.95191 -1.7220172,-1.72202 -0.3348367,-1.00451 0.2511275,-4.77142 0,-6.02706 -0.2755123,-1.37756 -1.2759145,-2.96674 -1.7220173,-4.30504 -0.5284557,-1.58537 -0.2149099,-3.22776 -0.8610086,-5.16606 -1.45526742,-4.3658 1.1167464,-10.17016 0,-14.63714 C 0.68257656,498.67127 1.3128492,502.8717 0,500.246 c -1.5369825,-3.07396 1.2670124,-14.28014 0,-18.08118 -0.12835159,-0.38505 -0.67949206,-0.49797 -0.86100861,-0.86101 -0.19598759,-0.39197 -0.33600769,-18.27017 0,-18.94219 0.18151655,-0.36303 0.73265702,-0.47595 0.86100861,-0.861 0.41746225,-1.25239 -0.48985342,-3.08041 0,-4.30505 0.3843164,-0.96079 1.259239,-1.65747 1.7220172,-2.58302 0.485369,-0.97074 0,-3.25395 0,-4.30505 0,-5.15154 -1.33500548,-12.82814 0.8610086,-17.22017 0.5551901,-1.11038 -0.3072434,-2.82955 0.8610086,-5.16605 1.1480115,-2.29602 -1.1480114,-6.31406 0,-8.61009 0.1815166,-0.36303 0.7326571,-0.47595 0.8610087,-0.86101 0.1852905,-0.55587 -0.3941154,-2.85286 0,-3.44403 0.4502871,-0.67543 1.27173,-1.04659 1.7220172,-1.72202 1.1526921,-1.72904 -0.6723955,-5.73189 0,-7.74907 0.8334752,-2.50043 0.8610086,-4.1875 0.8610086,-6.88807 0,-5.58658 0.8743038,-12.01424 -0.8610086,-17.22018 -0.8922979,-2.67689 0,-7.58837 0,-10.3321 0,-8.61009 0,-17.22017 0,-25.83026 0,-8.03608 0,-16.07216 0,-24.10824 0,-1.98267 0.7023794,-9.78835 0,-11.19311 -1.9702492,-3.9405 0.3568641,3.65362 -1.7220172,-2.58303 -0.941512,-2.82453 0,-22.80027 0,-25.83025 0,-18.65519 0,-37.31038 0,-55.96556 0,-5.59995 0.8804527,-11.99579 -0.8610087,-17.22018 -0.8464741,-2.53942 0.1375743,-5.61433 -0.8610086,-8.61008 -0.392601,-1.17781 0.7918787,-4.37418 0,-5.16605 -0.2029416,-0.20295 -0.6580669,0.20294 -0.8610086,0 -1.25595946,-1.25596 0.6921788,-6.87964 0,-8.61009 C 1.2453314,184.78615 0.47668582,183.72554 0,182.53383 -0.38205807,181.57868 -0.31309541,172.28 0,171.34071 c 2.1748242,-6.52447 -0.31090492,0.31091 1.7220172,-1.72201 0.3550299,-0.35503 0.8610086,-14.84321 0.8610086,-17.22018 0,-3.41733 -1.0721529,-8.83766 0,-12.05412 0.1283516,-0.38505 0.7326571,-0.47595 0.8610086,-0.86101 0.5166052,-1.54981 -0.5166051,-3.61623 0,-5.16605 0.1283516,-0.38505 0.7326571,-0.47595 0.8610087,-0.86101 0.5577662,-1.67329 -0.7845244,-4.45801 0,-6.02706 0.2870028,-0.574 1.4350143,-0.287 1.7220172,-0.861 0.5835942,-1.16719 0.3578387,-21.31271 0,-22.38623 -0.2029417,-0.60882 -0.4072173,-1.26822 -0.8610086,-1.72202 -0.2029417,-0.20294 -0.7914002,0.27844 -0.8610086,0 -0.5178246,-2.07129 0.9829356,-6.64421 0,-8.610082 -0.1283516,-0.256703 -0.7914002,0.278434 -0.8610087,0 -0.2784336,-1.113734 0.188732,-2.311642 0,-3.444034 -0.1055043,-0.633026 -0.6580669,-1.113192 -0.8610086,-1.722017 -1.06646,-3.19938 0,-8.64082 0,-12.054121 0,-3.524691 0.8976544,-9.617677 1.7220173,-12.915129 0.4727106,-1.890842 -0.4727107,-4.136218 0,-6.02706 1.4498827,-5.799531 0.013299,-0.0133 1.7220172,-1.722017 0.6460055,-0.646006 0,-6.747419 0,-7.749078 0,-4.423114 1.0380869,-24.096049 0,-26.691267 -1.0497917,-2.624479 -2.296023,-5.166051 -3.4440345,-7.749077 z"
     id="path91" />
  <rect
     style="fill:url(#radialGradient4069-2);fill-opacity:1;stroke:#450000;stroke-width:5.33778;stroke-dasharray:none;stroke-opacity:1"
     id="rect4059-0"
     width="257.93335"
     height="100.40994"
     x="52.394318"
     y="561.52173"
     transform="matrix(0.99992275,0.01242966,-0.01635741,0.99986621,0,0)"
     ry="43.591148" />
  <rect
     style="fill:url(#radialGradient4069);fill-opacity:1;stroke:#450000;stroke-width:5.33778;stroke-dasharray:none;stroke-opacity:1"
     id="rect4059"
     width="257.93335"
     height="100.40994"
     x="208.19273"
     y="31.716076"
     transform="matrix(0.99992275,0.01242966,-0.01635741,0.99986621,0,0)"
     ry="43.591148" />
  <path
     style="fill:#ffffff"
     d="m 231.61132,180.81181 -40.46741,200.615"
     id="path31" />
  <path
     style="opacity:1;fill:#b91817;fill-opacity:1;stroke:#b4b5cb;stroke-width:20.524;stroke-dasharray:none;stroke-opacity:1"
     d="M -7.6911184,692.25343 376.20281,691.38741 Z"
     id="path81" />
  <path
     style="opacity:1;fill:#b96717;fill-opacity:1;stroke:#b4b5cb;stroke-width:23.4262;stroke-dasharray:none;stroke-opacity:1"
     d="M 0.17270448,12.419671 502.99115,11.558263 Z"
     id="path81-53" />
  <path
     style="opacity:1;fill:#b91817;fill-opacity:1;stroke:#b4b5cb;stroke-width:27.5452;stroke-dasharray:none;stroke-opacity:1"
     d="M 12.549533,700.59544 11.694271,0.41816475 Z"
     id="path81-1" />
  <path
     style="opacity:1;fill:#b37e17;fill-opacity:1;stroke:#b4b5cb;stroke-width:25.156;stroke-dasharray:none;stroke-opacity:1"
     d="M 489.12712,-0.1055869 489.98508,582.03679 Z"
     id="path81-5" />
  <path
     style="opacity:1;fill:#b91817;fill-opacity:1;stroke:#b4b5cb;stroke-width:23.7;stroke-dasharray:none;stroke-opacity:1"
     d="M 598.98041,470.76027 235.51187,835.44645 Z"
     id="path81-10" />
  <path
     style="opacity:1;fill:#b91817;fill-opacity:1;stroke:#b4b5cb;stroke-width:5;stroke-dasharray:none;stroke-opacity:1"
     d="M 277.57336,820.91754 641.04191,456.23136 Z"
     id="path81-4" />
  <ellipse
     style="opacity:1;fill:#baebe4;fill-opacity:1;stroke:#b1a3ba;stroke-width:5;stroke-dasharray:none;stroke-opacity:1;stroke-miterlimit:0"
     id="path82"
     cx="84.378845"
     cy="87.392365"
     rx="65.467758"
     ry="67.620277" />
  <path
     style="opacity:1;fill:#a1a09f;fill-opacity:1;stroke:#a1a09f;stroke-width:1;stroke-miterlimit:0;stroke-dasharray:none;stroke-opacity:1"
     id="path36"
     d="m 41.660503,76.114267 c 2.0498,0.243327 4.10368,0.387162 6.16562,0.469953 2.278664,0.07828 4.559873,0.09369 6.8396,0.06463 2.433248,-1.88e-4 4.866521,-0.0036 7.29976,0.0062 2.321512,7.05e-4 4.6428,-0.01201 6.964355,6.8e-5 2.175383,0.0307 4.350368,-0.0074 6.525753,-0.005 2.339697,-0.0066 4.679402,0.0012 7.019104,0.0039 2.301413,0.108032 4.560936,-0.02866 6.838742,-0.326286 2.470488,-0.178826 4.878473,-0.753157 7.328819,-1.087299 2.117803,-0.322174 4.270994,-0.133391 6.380924,-0.467913 2.03311,-0.77232 4.21748,-0.955878 6.28876,-1.554411 2.43242,-0.496944 4.21472,-2.434754 5.88166,-4.152852 1.72143,-1.810399 2.78537,-4.048743 3.5348,-6.40288 0.53922,-1.905566 0.6532,-3.884801 0.66775,-5.853827 -0.006,-1.968961 -0.65306,-3.774978 -1.75276,-5.384754 -0.60948,-0.864304 -1.43978,-1.569984 -2.35382,-2.101374 -13.33471,-7.752338 -8.34619,-6.480401 -13.99694,-7.844822 -1.649549,-0.328168 -3.258107,-0.894412 -4.964247,-0.751194 -1.774815,0.02114 -3.18384,0.847664 -4.625282,1.787877 -1.557559,1.438847 -2.171611,3.370952 -2.528123,5.395196 -0.209359,1.26241 -0.07729,2.520339 0.0839,3.776296 0,0 13.351192,6.513076 13.351192,6.513076 v 0 c -0.24879,-1.104191 -0.53434,-2.227362 -0.34421,-3.363864 0.2093,-1.596572 0.51989,-3.247539 1.89489,-4.265156 1.33098,-0.735346 2.59312,-1.245505 4.15627,-1.098118 1.60231,0.230607 3.18269,0.621107 4.6978,1.190676 4.63056,2.530331 1.66608,0.916852 -11.58453,-6.753604 -1.805966,-1.045426 4.4125,2.694027 2.60228,1.608323 1.09706,1.483707 2.05115,2.599596 2.20192,4.561053 -0.0407,1.843633 -0.0329,3.704437 -0.45073,5.512151 -0.58661,2.159439 -1.54108,4.16825 -3.11358,5.796011 -1.63233,1.56499 -3.186923,3.128942 -5.541043,3.445149 -2.044796,0.466779 -4.077214,0.98817 -6.129857,1.406208 -2.13935,0.129823 -4.292262,0.158206 -6.409883,0.523569 -2.407949,0.411817 -4.806001,0.882139 -7.246312,1.070281 -2.258888,0.207111 -4.519136,0.163115 -6.785738,0.164026 -2.336133,0.0027 -4.672267,0.01049 -7.008395,0.0039 -2.180028,0.0023 -4.35967,-0.03581 -6.539688,-0.0049 -2.320306,0.0126 -4.640377,-1.36e-4 -6.960636,0.0038 -2.422044,0.01324 -4.844173,0.01611 -7.266232,0.01385 -2.273909,-0.03564 -4.549195,-0.02371 -6.821216,-0.140539 -2.078443,-0.127994 -4.18362,-0.282639 -6.195049,-0.852343 z" />
  <path
     style="opacity:1;fill:#a1a09f;fill-opacity:1;stroke:#a1a09f;stroke-width:1;stroke-miterlimit:0;stroke-dasharray:none;stroke-opacity:1"
     id="path37"
     d="m 48.764157,94.553746 c 1.749681,-0.46796 3.572846,-0.409711 5.338011,-0.770151 1.907976,-0.782308 3.903607,-1.230089 5.945811,-1.457426 2.057784,-0.174141 4.125503,-0.175585 6.189194,-0.182065 2.385325,-0.02465 4.770725,-7e-5 7.156136,-0.0038 2.082809,0.0031 4.165176,0.03126 6.247925,0.03178 1.839977,0.856354 3.831173,1.224267 5.82709,1.497159 2.060397,0.21266 4.137521,0.21627 6.207199,0.233601 1.677627,0.541408 3.504069,0.384942 5.159054,0.951776 1.452109,0.581747 2.996338,0.650723 4.539823,0.725141 1.65593,0.548545 3.43112,0.511452 5.09434,0.983102 0.95521,0.281886 1.91082,0.522727 2.77746,1.035757 0.1977,0.117031 0.76237,0.511649 0.5628,0.397842 -4.06483,-2.318017 -8.10751,-4.674668 -12.16127,-7.012003 1.100731,0.859863 1.994251,1.957184 2.62572,3.197968 0.67721,1.625741 0.38566,1.967677 -1.071007,2.740464 -1.668639,0.551722 -3.243648,1.369406 -4.955676,1.783007 -1.475147,0.260906 -2.981006,0.268956 -4.474697,0.26422 -0.932365,-0.0039 -0.465784,-0.0022 -1.399745,-0.005 0,0 12.038305,8.742122 12.038305,8.742122 v 0 c 0.94214,-0.007 0.47247,6e-5 1.40903,-0.0211 1.57999,-0.0694 3.17998,-0.11336 4.70114,-0.59601 1.72992,-0.6088 3.40665,-1.38028 5.08318,-2.11905 1.73868,-1.08 2.85808,-2.42383 2.14454,-4.55956 -0.47122,-1.491443 -1.23341,-2.71783 -2.29537,-3.867203 -5.81594,-3.467622 -10.3932,-7.670985 -16.784746,-8.940857 -1.746349,-0.26263 -3.476417,-0.621193 -5.227891,-0.835562 -1.506422,-0.161439 -2.95149,-0.513605 -4.412298,-0.906198 -1.766844,-0.226189 -3.52411,-0.585578 -5.303194,-0.660452 -2.027262,-0.02535 -4.063014,-0.05993 -6.066594,-0.404784 -2.018144,-0.378372 -3.946793,-1.14159 -5.989317,-1.323067 -2.056608,-4.32e-4 -4.112872,0.02556 -6.169553,0.02287 -2.401205,-0.01084 -4.802589,-0.0015 -7.203666,-0.017 -2.104372,0.01882 -4.21353,0.04694 -6.302373,0.334674 -2.036693,0.322515 -3.981661,0.949564 -5.96906,1.479978 -1.867768,0.204366 -3.745318,0.364564 -5.585842,0.758128 z" />
  <path
     style="opacity:1;fill:#a1a09f;fill-opacity:1;stroke:#a1a09f;stroke-width:1;stroke-miterlimit:0;stroke-dasharray:none;stroke-opacity:1"
     id="path38"
     d="m 51.463016,112.94976 c 0.903202,-1.51728 1.896376,-2.5798 3.59486,-3.1072 2.108003,-0.90672 4.38899,-1.10505 6.65147,-1.25259 2.176473,-0.16058 4.386978,0.0629 6.484498,0.66439 1.518442,1.10668 3.410647,1.21821 5.098174,1.8985 1.548782,0.37217 3.00202,0.8368 4.46668,1.46512 1.568744,0.60242 3.175877,1.1331 4.707386,1.82244 -2.026589,-1.2497 5.003639,2.70559 2.87085,1.48624 -4.403627,-2.51762 -16.438143,-9.45885 -11.522622,-6.62383 1.242124,0.83296 1.195091,2.09031 0.977424,3.41777 -0.404932,2.22655 -1.920745,3.81841 -3.264967,5.53547 -1.470096,1.95573 -3.219183,3.70105 -5.35008,4.92215 -1.593522,0.70865 -3.280502,0.99125 -4.89914,0.27916 -4.294257,-2.8815 -10.401619,-5.85695 10.63,6.00828 0.957212,0.54002 -1.006936,-0.82371 -1.467053,-1.31138 -0.419132,-0.54662 -0.640823,-1.20079 -0.885027,-1.83547 0,0 -13.34011,-6.87095 -13.34011,-6.87095 v 0 c -0.118437,1.00082 0.27931,1.79755 0.587426,2.73291 0.3228,0.67815 0.650692,1.32771 1.322308,1.73582 3.453405,2.0985 9.58379,6.93256 14.932548,8.54046 1.950788,0.17511 3.868133,-0.25306 5.542697,-1.29414 2.109464,-1.49258 3.936756,-3.33281 5.507009,-5.38354 1.519329,-1.84019 3.188941,-3.64081 3.718561,-6.04426 0.467326,-1.6506 0.714371,-3.30199 -0.205878,-4.85408 -4.233334,-4.81016 -11.011631,-6.91919 -16.806838,-9.61109 -1.583489,-0.57255 -3.125087,-1.25321 -4.712927,-1.81576 -1.487482,-0.54874 -3.028002,-0.87748 -4.523529,-1.40582 -1.754523,-0.47642 -3.395622,-1.19944 -5.127617,-1.72635 -2.223744,-0.36166 -4.460486,-0.578339 -6.708527,-0.27421 -2.380246,0.24751 -4.746836,0.59475 -6.958911,1.56315 -1.738666,0.80883 -2.899705,2.03583 -4.081855,3.51752 z" />
  <path
     style="opacity:1;fill:#a1a09f;fill-opacity:1;stroke:#a1a09f;stroke-width:1;stroke-miterlimit:0;stroke-dasharray:none;stroke-opacity:1"
     id="path39"
     d="m 113.3398,86.804668 c 1.77865,-0.449396 3.62149,-0.531262 5.44615,-0.610457 2.34478,-0.06917 4.69095,-0.0906 7.03668,-0.09154 2.186,-0.169213 4.2888,0.16815 6.43029,0.520685 0.59232,0.169847 1.22337,0.08908 1.82048,0.219735 0.7477,0.163602 1.3485,0.64016 1.96775,1.056458 -4.04386,-2.326342 -8.08773,-4.652685 -12.13159,-6.979027 1.38439,0.76629 2.31804,1.759197 2.98295,3.190264 0.50521,1.485878 1.01839,3.027136 0.11805,4.424113 -1.23276,1.579642 -3.01098,2.587781 -4.80625,3.404684 -1.58862,0.593907 -3.29065,1.196337 -4.85247,0.280679 -6.86928,-3.327636 15.85879,9.830788 10.51365,6.033083 0,0 -13.78574,-5.626583 -13.78574,-5.626583 v 0 c 3.89036,4.32827 9.5159,7.023584 15.06821,8.680908 1.88566,0.12986 3.6482,-0.46838 5.34654,-1.26042 2.01431,-1.034139 3.94809,-2.240911 5.36339,-4.050832 1.31489,-2.228597 0.99758,-3.199002 0.45357,-5.638175 -0.45629,-1.561581 -1.04137,-3.181549 -2.55713,-3.998989 -7.86224,-4.600229 -10.24795,-7.803381 -17.335,-8.614904 -2.15061,-0.313074 -4.30078,-0.334135 -6.4723,-0.266817 -2.37969,0.0069 -4.76177,-0.02503 -7.13868,0.113628 -1.94394,0.127081 -3.88792,0.288114 -5.79409,0.71184 z" />
  <g
     style="opacity:0.36747;fill:#828282;fill-opacity:1"
     id="g15656"
     transform="matrix(6.2446902,0,0,6.5947707,288.63655,46.620085)">
    <path
       fill-rule="evenodd"
       clip-rule="evenodd"
       d="m 7.1768,1.23057 c 1.5295,-1.52955 4.0094,-1.52955 5.539,0 1.5295,1.52955 1.5295,4.00943 0,5.53903 l -4.6993,4.6993 c -0.5614,0.5614 -1.4716,0.5614 -2.033,0 L 1.28422,6.7696 c -1.52955,-1.5296 -1.52955,-4.00948 0,-5.53903 1.52955,-1.52955 4.00948,-1.52955 5.53898,0 L 7,1.40735 Z"
       fill="#758ca3"
       id="path15648"
       style="fill:#828282;fill-opacity:1" />
  </g>
  <g
     style="opacity:0.590361;fill:#828282;fill-opacity:1"
     id="g16047"
     transform="matrix(0.1510543,0,0,0.14965041,125.784,574.72888)">
    <g
       id="g16033"
       style="fill:#828282;fill-opacity:1">
	<g
   id="g16031"
   style="fill:#828282;fill-opacity:1">
		<g
   id="g16029"
   style="fill:#828282;fill-opacity:1">
			<path
   d="m 125.491,267.021 c -3.337,-3.337 -8.73,-3.337 -12.066,0 -25.301,25.293 -25.813,53.094 -1.707,78.507 l -53.896,53.888 -8.866,-8.798 c -6.647,-6.656 -17.468,-6.673 -24.098,-0.043 L 4.992,410.449 c -6.656,6.647 -6.656,17.476 0,24.132 l 72.397,72.405 c 3.328,3.328 7.706,4.992 12.075,4.992 4.369,0 8.747,-1.664 12.066,-4.992 l 19.866,-19.857 c 3.482,-3.482 5.163,-8.346 4.625,-13.346 -0.495,-4.582 -2.756,-8.994 -6.536,-12.774 l -6.912,-6.878 53.837,-53.828 c 25.762,24.525 52.873,23.927 78.549,-1.749 3.337,-3.337 3.337,-8.73 0,-12.066 z m 51.158,119.424 -4.301,-4.241 c -3.336,-3.285 -8.695,-3.268 -12.023,0.043 L 100.489,442.091 87.04,428.702 c -3.336,-3.328 -8.73,-3.311 -12.075,0.026 -3.328,3.337 -3.311,8.738 0.026,12.066 l 32.435,32.299 c 1.263,1.254 1.587,2.236 1.86,2.014 L 89.455,494.921 17.058,422.516 36.915,402.71 51.84,417.524 c 3.328,3.302 8.721,3.294 12.041,-0.026 l 59.827,-59.836 15.317,15.352 c 3.337,3.337 8.73,3.337 12.066,0.017 3.345,-3.328 3.345,-8.738 0.017,-12.075 l -25.617,-25.668 c -9.591,-9.6 -14.473,-19.021 -14.498,-28.023 -0.017,-7.049 2.935,-14.362 8.798,-21.803 l 106.752,106.743 c -16.939,13.474 -32.572,11.58 -49.894,-5.76 z"
   id="path16021"
   style="fill:#828282;fill-opacity:1" />

			<path
   d="M 287.625,176.687 430.933,33.378 476.706,23.206 305.425,194.487 c -3.337,3.337 -3.337,8.73 0,12.066 1.664,1.664 3.849,2.5 6.033,2.5 2.185,0 4.369,-0.836 6.033,-2.5 L 488.764,35.281 478.601,81.045 335.292,224.354 c -3.337,3.337 -3.337,8.73 0,12.066 1.664,1.664 3.849,2.5 6.033,2.5 2.185,0 4.369,-0.836 6.033,-2.5 L 492.425,91.354 c 1.152,-1.143 1.946,-2.594 2.304,-4.181 l 17.067,-76.8 c 0.111,-0.521 0.12,-1.05 0.137,-1.57 0.009,-0.128 0.043,-0.256 0.043,-0.384 -0.017,-0.973 -0.213,-1.911 -0.546,-2.816 -0.077,-0.205 -0.171,-0.393 -0.265,-0.589 -0.418,-0.922 -0.939,-1.792 -1.673,-2.526 -0.734,-0.734 -1.604,-1.254 -2.517,-1.673 -0.205,-0.094 -0.393,-0.188 -0.597,-0.265 -0.904,-0.324 -1.843,-0.529 -2.807,-0.546 -0.145,0 -0.273,0.034 -0.418,0.043 -0.521,0.017 -1.033,0.034 -1.544,0.145 l -76.8,17.067 c -1.579,0.35 -3.029,1.143 -4.181,2.295 l -145.07,145.067 c -3.337,3.337 -3.337,8.73 0,12.066 3.337,3.336 8.73,3.336 12.067,0 z"
   id="path16023"
   style="fill:#828282;fill-opacity:1" />

			<path
   d="m 506.991,410.449 -19.857,-19.866 c -6.007,-6.016 -16.922,-7.296 -26.129,1.92 l -6.861,6.895 -53.837,-53.828 c 24.516,-25.754 23.936,-52.864 -1.749,-78.549 -3.337,-3.337 -8.73,-3.337 -12.066,0 L 267.025,386.487 c -3.337,3.337 -3.337,8.73 0,12.066 25.301,25.301 53.111,25.813 78.507,1.707 l 53.897,53.897 -8.806,8.866 c -6.656,6.656 -6.673,17.468 -0.034,24.098 l 19.866,19.866 c 3.319,3.328 7.697,4.992 12.066,4.992 4.369,0 8.747,-1.664 12.075,-4.992 l 72.397,-72.397 c 6.654,-6.656 6.654,-17.493 -0.002,-24.141 z m -84.472,84.472 -19.806,-19.857 14.814,-14.925 c 3.302,-3.337 3.294,-8.721 -0.026,-12.041 l -59.836,-59.836 15.352,-15.309 c 3.345,-3.328 3.345,-8.73 0.017,-12.075 -3.336,-3.328 -8.738,-3.337 -12.066,-0.009 l -25.677,25.617 c -9.6,9.591 -19.029,14.473 -28.023,14.498 h -0.077 c -7.023,0 -14.31,-2.953 -21.726,-8.806 L 392.208,285.443 c 13.483,16.922 11.563,32.555 -5.769,49.886 l -4.233,4.301 c -3.285,3.345 -3.268,8.713 0.051,12.023 l 59.836,59.836 -13.397,13.449 c -3.319,3.336 -3.302,8.747 0.026,12.066 3.354,3.337 8.747,3.319 12.075,-0.026 l 32.29,-32.427 c 1.263,-1.254 2.219,-1.587 2.022,-1.86 l 19.814,19.831 z"
   id="path16025"
   style="fill:#828282;fill-opacity:1" />

			<path
   d="m 281.591,349.854 c 2.185,0 4.369,-0.836 6.033,-2.5 3.336,-3.337 3.336,-8.73 0,-12.066 L 33.382,81.045 23.219,35.281 305.425,317.487 c 1.664,1.664 3.849,2.5 6.033,2.5 2.185,0 4.369,-0.836 6.033,-2.5 3.337,-3.337 3.337,-8.73 0,-12.066 L 35.277,23.206 81.05,33.378 335.292,287.62 c 3.337,3.337 8.73,3.337 12.066,0 3.336,-3.337 3.336,-8.73 0,-12.066 l -256,-256 C 90.206,18.402 88.755,17.608 87.177,17.259 L 10.377,0.192 C 9.865,0.081 9.353,0.064 8.832,0.047 8.687,0.038 8.559,0.004 8.414,0.004 7.441,0.021 6.511,0.226 5.606,0.55 5.402,0.627 5.214,0.721 5.018,0.815 4.096,1.225 3.226,1.754 2.492,2.488 1.758,3.221 1.229,4.092 0.819,5.013 0.725,5.21 0.631,5.397 0.555,5.602 0.222,6.507 0.026,7.445 0.009,8.418 c 0,0.128 0.034,0.256 0.043,0.384 0.017,0.521 0.026,1.05 0.137,1.57 l 17.067,76.8 c 0.358,1.587 1.152,3.038 2.304,4.181 l 164.634,164.634 -19.567,19.567 c -3.337,3.337 -3.337,8.73 0,12.066 1.664,1.664 3.849,2.5 6.033,2.5 2.184,0 4.369,-0.836 6.033,-2.5 l 19.567,-19.567 17.8,17.801 -19.567,19.567 c -3.337,3.336 -3.337,8.73 0,12.066 1.664,1.664 3.849,2.5 6.033,2.5 2.185,0 4.369,-0.836 6.033,-2.5 l 19.567,-19.567 17.801,17.801 -19.567,19.567 c -3.337,3.337 -3.337,8.73 0,12.066 1.664,1.664 3.849,2.5 6.033,2.5 2.184,0 4.369,-0.836 6.033,-2.5 l 19.567,-19.567 19.567,19.567 c 1.662,1.664 3.847,2.5 6.031,2.5 z"
   id="path16027"
   style="fill:#828282;fill-opacity:1" />

		</g>

	</g>

</g>
  </g>
</svg>
